<svg xmlns="http://www.w3.org/2000/svg" xmlns:xlink="http://www.w3.org/1999/xlink" id="Layer_1" x="0" y="0" version="1.1" viewBox="0 0 60.6 19.1" xml:space="preserve" style="enable-background:new 0 0 60.6 19.1"><style type="text/css">.st0{font-family:&apos;FuturaPT-Heavy&apos;}.st1{font-size:4.7317px}.st2{fill:#8f1e1d}.st3{fill:#fff}</style><text class="st0 st1" transform="matrix(1 0 0 1 0 14.4105)">ELECTION</text><text class="st0 st1" transform="matrix(1 0 0 1 36.86 14.4105)">ACADEMY</text><g><polygon points="39.9 7.8 39.1 7.8 27.2 14.6 30.1 5.3 31.5 10.1 37.9 7.8 32.7 7.8 29.9 0 27.7 7.8 20.2 7.8 26.1 12 23.8 19.1 28.9 15.4 29.9 14.7 29.8 14.6 29.9 14.7 32 13.1 34 17.5 36.2 19.1 33.8 11.8" class="st2"/><polygon points="30.1 5.3 27.2 14.6 39.1 7.8 37.9 7.8 31.5 10.1" class="st3"/><polygon points="29.9 14.7 29.9 14.7 29.9 14.7 34 17.5 32 13.1" class="st3"/><polygon points="28.9 15.4 29.9 14.7 29.9 14.7" class="st2"/></g></svg>